DataRate=300.000000
DataType=double
version=3
OpenSimVersion=4.2
endheader
time	ground_force_vx1	ground_force_vy1	ground_force_vz1	ground_force_px1	ground_force_py1	ground_force_pz1	ground_torque_x1	ground_torque_y1	ground_torque_z1	ground_force_vx2	ground_force_vy2	ground_force_vz2	ground_force_px2	ground_force_py2	ground_force_pz2	ground_torque_x2	ground_torque_y2	ground_torque_z2
0	46.7293304341157	361.7106910072163	14.10922595559053	2.356583229488493	0	1.116784659726669	0	10.29418860816783	0	-31.89769230634336	278.1888555842274	-10.67052908783404	2.655421071311017	0	1.265333602359125	0	18.93148502065639	0
0.003333333333333334	37.89418756875866	337.2269389438333	10.26369785969633	2.345424966917789	0	1.124189767780255	0	10.63311145999908	0	-31.08125337016701	277.005509591199	-10.78331424879745	2.658796882804107	0	1.26388711144359	0	17.82842480406833	0
0.006666666666666667	32.39573507845596	318.7266086981189	7.527506514740423	2.337286851144445	0	1.128357100134447	0	10.70704855365296	0	-30.20147907256711	276.559318461147	-11.37887336576118	2.663578647588773	0	1.261530988118515	0	16.82879877067827	0
0.01	31.21813971101661	307.8228831412961	6.276770305580522	2.333494252906076	0	1.12865458338035	0	10.49364098694367	0	-29.42341814856232	277.3342451157895	-12.24078409162812	2.66803819033689	0	1.259018559452667	0	16.09461899325297	0
0.01333333333333333	32.85157244213563	301.630536929748	6.088934756766703	2.333473851839122	0	1.127058274951308	0	10.21273061678285	0	-29.02198616883457	279.3920056643586	-12.56885894747947	2.668358218064904	0	1.258303760738522	0	15.8455413714833	0
0.01666666666666667	34.93898864372707	296.0435588478303	6.238443571637402	2.335551709134052	0	1.126057683948668	0	10.10722990143866	0	-29.10258244497885	282.3909335956328	-11.78022864194677	2.662636813432262	0	1.260473579677841	0	16.18540708860862	0
0.02	35.96419489100422	288.8327744655968	6.196434385235879	2.337875134818956	0	1.126632148194227	0	10.2322888800549	0	-29.50929199436095	285.8053244216336	-10.1572446711255	2.653438971289015	0	1.264392327742724	0	16.87252743478727	0
0.02333333333333333	35.71577535835576	280.2054760383439	5.792904405986444	2.339074564676303	0	1.128014533733632	0	10.4580366948956	0	-29.94037992776213	289.2635458818696	-8.69008115882027	2.64614529540884	0	1.267501047667861	0	17.36352417097433	0
0.02666666666666667	34.66431411455347	271.3619431955387	5.111287516466696	2.338623828395701	0	1.129014869030593	0	10.65535536733529	0	-30.1086966602262	292.782359438606	-8.267777728244466	2.644637385375909	0	1.267929251306628	0	17.2229992870869	0
0.03	33.22539756416671	262.969627930312	4.333741008922442	2.336808411596289	0	1.129363591948715	0	10.8359534796799	0	-29.87555890627808	296.7075547624376	-8.943421437546734	2.648154738814819	0	1.265968600168086	0	16.53629029671605	0
0.03333333333333333	31.61251727925465	254.8178474223391	3.635154972128804	2.334340695524843	0	1.129844758579843	0	11.08162919666991	0	-29.32822047899757	301.4057187826233	-9.895707782044949	2.652021473360446	0	1.263734521021374	0	15.89003205030849	0
0.03666666666666667	30.089677037427	246.4596233828852	3.096339876918834	2.331877900911722	0	1.131323390051525	0	11.36928176029462	0	-28.73428238862117	306.9487119734598	-10.10880659594216	2.651626024782817	0	1.263420090098329	0	15.89092532451205	0
0.04	29.02916606573995	237.8679059864459	2.650925099414245	2.329722329349909	0	1.133744930666923	0	11.54125104967058	0	-28.36644930074894	313.0167865227912	-9.202056996253786	2.646193138798772	0	1.265602334771429	0	16.63932496136715	0
0.04333333333333333	28.6750259933196	229.5088995060324	2.150971312869001	2.327861363978571	0	1.136013830416029	0	11.47076443686754	0	-28.30529665220045	319.0881102881152	-7.72001257338442	2.639148645163512	0	1.268915203785603	0	17.63196815862027	0
0.04666666666666667	29.00058807413442	221.9904670644228	1.530830019010148	2.326286382722962	0	1.136787342168406	0	11.20367409249124	0	-28.36341657980135	324.8076801235313	-6.649038715752686	2.635034330435907	0	1.271261831820529	0	18.18886879993783	0
0.05	29.80666409478007	215.6693674871777	0.8953035337486882	2.325259696778465	0	1.135551742050626	0	10.90957327708041	0	-28.22254685939562	330.2832879595902	-6.587328524365031	2.635798414239349	0	1.27151353779003	0	18.0284340931537	0
